<svg id="Layer_1" data-name="Layer 1" xmlns="http://www.w3.org/2000/svg" xmlns:xlink="http://www.w3.org/1999/xlink" viewBox="0 0 1805.1 1800.72"><defs><style>.cls-1{fill:url(#linear-gradient);}.cls-2,.cls-5{fill:none;stroke:#428bca;stroke-miterlimit:10;}.cls-2{stroke-width:17px;}.cls-3{fill:#428bca;}.cls-4{fill:url(#linear-gradient-2);}.cls-5{stroke-width:8.8px;}</style><linearGradient id="linear-gradient" x1="517.71" y1="515.52" x2="1612.66" y2="1610.47" gradientUnits="userSpaceOnUse"><stop offset="0" stop-color="#ebebeb"/><stop offset="0.25" stop-color="#e7e7e7"/><stop offset="0.48" stop-color="#dcdcdc"/><stop offset="0.7" stop-color="#c9c9c9"/><stop offset="0.92" stop-color="#afafaf"/><stop offset="1" stop-color="#a3a3a3"/></linearGradient><linearGradient id="linear-gradient-2" x1="590.13" y1="735.67" x2="1246.88" y2="1392.42" gradientUnits="userSpaceOnUse"><stop offset="0" stop-color="#d1d1d1"/><stop offset="0.3" stop-color="#d5d5d5"/><stop offset="0.59" stop-color="#e0e0e0"/><stop offset="0.86" stop-color="#f3f3f3"/><stop offset="1" stop-color="#fff"/></linearGradient></defs><title>Artboard 14 copy</title><path class="cls-1" d="M1207.18,177.72c281.34,119.52,479.93,399,479.93,722.65A777.25,777.25,0,0,1,1625.2,1205c-119.52,281.34-399,479.93-722.65,479.93-431.5,0-784.55-353-784.55-784.55A777.41,777.41,0,0,1,179.9,595.74c119.52-281.34,399-479.93,722.65-479.93A777.32,777.32,0,0,1,1207.18,177.72Z"/><path class="cls-2" d="M902.55,1684.91c-431.5,0-784.55-353-784.55-784.55A777.41,777.41,0,0,1,179.9,595.74c119.52-281.34,399-479.93,722.65-479.93a777.32,777.32,0,0,1,304.63,61.91c281.34,119.52,479.93,399,479.93,722.65A777.25,777.25,0,0,1,1625.2,1205C1505.68,1486.33,1226.18,1684.91,902.55,1684.91Z"/><path class="cls-3" d="M1436.94,907.74a555.24,555.24,0,0,1-42.35,213.7,549.16,549.16,0,0,1-118.94,177.45c-102.18,102.09-243.27,158.56-393.81,158.56S592.78,1401,490.68,1298.89,332,1058.27,332,907.74,388.5,617.35,490.68,515.26s240.54-160,391.15-160c11.38,0,22.5,5.38,30.72,13.59s13.58,19.41,13.58,30.79V866.09h463.77C1412.76,866.09,1436.94,884.88,1436.94,907.74Zm-91.41,39H881.84c-22.84,0-49.77-16.15-49.77-39V445.37C724.51,454.72,622.43,500.43,545.75,577c-86,86-129,204.35-129,332s47,244.59,133.06,330.62,204.27,133.06,332,133.06,245.92-48.35,332-134.38C1290.38,1161.77,1336.08,1067.71,1345.53,946.74Z"/><path class="cls-4" d="M881.84,946.74h463.69c-9.45,121-55.15,215-131.74,291.62-86,86-204.27,134.38-332,134.38s-246-47-332-133.06S416.74,1036.73,416.74,909.06s43-246,129-332c76.68-76.59,178.76-122.3,286.32-131.65V907.74C832.07,930.59,859,946.74,881.84,946.74Z"/><path class="cls-5" d="M490.68,515.26C388.5,617.35,332,757.2,332,907.74s56.47,289,158.65,391.15,240.54,158.56,391.15,158.56,291.63-56.47,393.81-158.56a549.16,549.16,0,0,0,118.94-177.45,555.24,555.24,0,0,0,42.35-213.7c0-22.85-24.18-41.65-47-41.65H926.13V399.67c0-11.38-5.38-22.5-13.58-30.79s-19.33-13.59-30.72-13.59C731.22,355.28,592.78,413.08,490.68,515.26Z"/><path class="cls-5" d="M416.74,909.06c0-127.68,43-246,129-332,76.68-76.59,178.76-122.3,286.32-131.65V907.74c0,22.85,26.92,39,49.77,39h463.69c-9.45,121-55.15,215-131.74,291.62-86,86-204.27,134.38-332,134.38s-246-47-332-133.06S416.74,1036.73,416.74,909.06Z"/><path class="cls-3" d="M1433.52,802.46H1038.75c-21.31,0-42.61-17.55-42.61-40.1V367.58c0-10,6.27-21.31,12.53-28.82,7.52-7.52,18.8-12.53,28.82-12.53h0c244.38,0,434.87,191.75,434.87,434.87,0,10-3.76,21.31-11.28,28.82S1443.55,802.46,1433.52,802.46Z"/></svg>